<svg xmlns="http://www.w3.org/2000/svg" width="600" height="376" viewBox="0 0 600 376" role="img" aria-label="sms-retriever-nitro-module — One-tap OTP autofill on Android, zero SMS permissions. Nitro + TurboModules, Expo-ready." fill="none">
<title>sms-retriever-nitro-module — One-tap OTP autofill on Android, zero SMS permissions. Nitro + TurboModules, Expo-ready.</title>
<defs><linearGradient id="g" x1="0" y1="0" x2="1" y2="1"><stop offset="0.00" stop-color="#3ECF8E"/><stop offset="1.00" stop-color="#00D4FF"/></linearGradient><linearGradient id="bar" x1="0" y1="0" x2="1" y2="0"><stop offset="0.00" stop-color="#3ECF8E"/><stop offset="1.00" stop-color="#00D4FF"/></linearGradient><radialGradient id="r"><stop offset="0" stop-color="#3ECF8E" stop-opacity="0.34"/><stop offset="1" stop-color="#3ECF8E" stop-opacity="0"/></radialGradient><style>
text{font-family:-apple-system, BlinkMacSystemFont, 'Segoe UI', Inter, Roboto, 'Helvetica Neue', Arial, sans-serif}
.mono{font-family:ui-monospace, SFMono-Regular, 'SF Mono', Menlo, Consolas, 'Liberation Mono', monospace}
@media (prefers-reduced-motion: reduce){*{animation:none!important}}
.dg,.hl{animation:dg 6s ease-out infinite}@keyframes dg{0%,6%{opacity:0}12%,86%{opacity:1}94%,100%{opacity:0}}.hl{animation-name:hl}@keyframes hl{0%,6%{opacity:0}10%{opacity:1}22%,100%{opacity:0}}</style></defs>

<clipPath id="cf"><rect x="0" y="0" width="600" height="352" rx="22"/></clipPath><g clip-path="url(#cf)"><rect x="0" y="0" width="600" height="352" fill="#0A2540"/><circle cx="580" cy="0" r="340" fill="url(#r)"/></g><rect x="0.75" y="0.75" width="598.5" height="350.5" rx="21.25" stroke="#1C3A5E" stroke-width="1.5"/>
<rect x="36" y="36" width="56" height="56" rx="15" fill="url(#g)"/>
<g transform="translate(50 50) scale(1.1667)" fill="none" stroke="#FFFFFF" stroke-width="2.1" stroke-linecap="round" stroke-linejoin="round"><path d="M21 15a2 2 0 0 1-2 2H7l-4 4V5a2 2 0 0 1 2-2h14a2 2 0 0 1 2 2z"/><path d="M8 10h.01M12 10h.01M16 10h.01"/></g>
<rect x="308" y="40" width="36" height="48" rx="10" fill="#FFFFFF" fill-opacity=".06" stroke="#FFFFFF" stroke-opacity=".14"/><rect class="hl" x="308" y="40" width="36" height="48" rx="10" stroke="#3ECF8E" stroke-width="1.5" style="animation-delay:0.00s"/><text x="326" y="72" font-size="22" font-weight="700" fill="#FFFFFF" text-anchor="middle" class="dg" style="animation-delay:0.00s">4</text><rect x="352" y="40" width="36" height="48" rx="10" fill="#FFFFFF" fill-opacity=".06" stroke="#FFFFFF" stroke-opacity=".14"/><rect class="hl" x="352" y="40" width="36" height="48" rx="10" stroke="#3ECF8E" stroke-width="1.5" style="animation-delay:0.15s"/><text x="370" y="72" font-size="22" font-weight="700" fill="#FFFFFF" text-anchor="middle" class="dg" style="animation-delay:0.15s">8</text><rect x="396" y="40" width="36" height="48" rx="10" fill="#FFFFFF" fill-opacity=".06" stroke="#FFFFFF" stroke-opacity=".14"/><rect class="hl" x="396" y="40" width="36" height="48" rx="10" stroke="#3ECF8E" stroke-width="1.5" style="animation-delay:0.30s"/><text x="414" y="72" font-size="22" font-weight="700" fill="#FFFFFF" text-anchor="middle" class="dg" style="animation-delay:0.30s">2</text><rect x="440" y="40" width="36" height="48" rx="10" fill="#FFFFFF" fill-opacity=".06" stroke="#FFFFFF" stroke-opacity=".14"/><rect class="hl" x="440" y="40" width="36" height="48" rx="10" stroke="#3ECF8E" stroke-width="1.5" style="animation-delay:0.45s"/><text x="458" y="72" font-size="22" font-weight="700" fill="#FFFFFF" text-anchor="middle" class="dg" style="animation-delay:0.45s">9</text><rect x="484" y="40" width="36" height="48" rx="10" fill="#FFFFFF" fill-opacity=".06" stroke="#FFFFFF" stroke-opacity=".14"/><rect class="hl" x="484" y="40" width="36" height="48" rx="10" stroke="#3ECF8E" stroke-width="1.5" style="animation-delay:0.60s"/><text x="502" y="72" font-size="22" font-weight="700" fill="#FFFFFF" text-anchor="middle" class="dg" style="animation-delay:0.60s">1</text><rect x="528" y="40" width="36" height="48" rx="10" fill="#FFFFFF" fill-opacity=".06" stroke="#FFFFFF" stroke-opacity=".14"/><rect class="hl" x="528" y="40" width="36" height="48" rx="10" stroke="#3ECF8E" stroke-width="1.5" style="animation-delay:0.75s"/><text x="546" y="72" font-size="22" font-weight="700" fill="#FFFFFF" text-anchor="middle" class="dg" style="animation-delay:0.75s">6</text>
<text x="36" y="140" font-size="13" font-weight="700" fill="#9FF0CB" letter-spacing="1.6" >OTP · ANDROID · NITRO</text>
<text x="35" y="180" font-size="30" font-weight="700" fill="#FFFFFF" letter-spacing="-0.7" >sms-retriever-nitro-module</text>
<text x="36" y="218" font-size="19" font-weight="400" fill="#ADBDCC" >One-tap OTP autofill on Android, zero SMS</text>
<text x="36" y="246" font-size="19" font-weight="400" fill="#ADBDCC" >permissions. Nitro + TurboModules, Expo-ready.</text>
<rect x="36" y="272" width="528" height="52" rx="12" fill="#061B31" stroke="#1C3A5E"/>
<text x="56" y="304" font-size="15" xml:space="preserve" class="mono" ><tspan fill="#F98BE3">const</tspan><tspan fill="#C9D6E3"> { smsCode } = </tspan><tspan fill="#7FD3FF">useSMSRetriever</tspan><tspan fill="#C9D6E3">({ onSuccess })</tspan></text>
</svg>
