<svg xmlns="http://www.w3.org/2000/svg" width="600" height="376" viewBox="0 0 600 376" role="img" aria-label="More on npm — Also maintaining a multilingual country-code picker with search &amp; Reanimated v3 support." fill="none">
<title>More on npm — Also maintaining a multilingual country-code picker with search &amp; Reanimated v3 support.</title>
<defs><linearGradient id="g" x1="0" y1="0" x2="1" y2="1"><stop offset="0.00" stop-color="#635BFF"/><stop offset="1.00" stop-color="#00D4FF"/></linearGradient><linearGradient id="bar" x1="0" y1="0" x2="1" y2="0"><stop offset="0.00" stop-color="#3ECF8E"/><stop offset="1.00" stop-color="#00D4FF"/></linearGradient><radialGradient id="r"><stop offset="0" stop-color="#635BFF" stop-opacity="0.34"/><stop offset="1" stop-color="#635BFF" stop-opacity="0"/></radialGradient><style>
text{font-family:-apple-system, BlinkMacSystemFont, 'Segoe UI', Inter, Roboto, 'Helvetica Neue', Arial, sans-serif}
.mono{font-family:ui-monospace, SFMono-Regular, 'SF Mono', Menlo, Consolas, 'Liberation Mono', monospace}
@media (prefers-reduced-motion: reduce){*{animation:none!important}}
</style></defs>

<clipPath id="cf"><rect x="12" y="0" width="576" height="360" rx="22"/></clipPath><g clip-path="url(#cf)"><rect x="12" y="0" width="576" height="360" fill="#0A2540"/><circle cx="568" cy="0" r="340" fill="url(#r)"/></g><rect x="12.75" y="0.75" width="574.5" height="358.5" rx="21.25" stroke="#1C3A5E" stroke-width="1.5"/>
<rect x="48" y="36" width="56" height="56" rx="15" fill="url(#g)"/>
<g transform="translate(62 50) scale(1.1667)" fill="none" stroke="#FFFFFF" stroke-width="2.1" stroke-linecap="round" stroke-linejoin="round"><path d="M21 16V8a2 2 0 0 0-1-1.73l-7-4a2 2 0 0 0-2 0l-7 4A2 2 0 0 0 3 8v8a2 2 0 0 0 1 1.73l7 4a2 2 0 0 0 2 0l7-4A2 2 0 0 0 21 16z"/><polyline points="3.27 6.96 12 12.01 20.73 6.96"/><line x1="12" y1="22.08" x2="12" y2="12"/></g>
<circle cx="370" cy="64" r="22" fill="#635BFF" stroke="#0A2540" stroke-width="3"/><text x="370" y="68" font-size="11" font-weight="800" fill="#FFFFFF" text-anchor="middle" letter-spacing="0.4" >SSL</text><circle cx="410" cy="64" r="22" fill="#F96BEE" stroke="#0A2540" stroke-width="3"/><text x="410" y="68" font-size="11" font-weight="800" fill="#FFFFFF" text-anchor="middle" letter-spacing="0.4" >ICN</text><circle cx="450" cy="64" r="22" fill="#3ECF8E" stroke="#0A2540" stroke-width="3"/><text x="450" y="68" font-size="11" font-weight="800" fill="#FFFFFF" text-anchor="middle" letter-spacing="0.4" >SMS</text><circle cx="490" cy="64" r="22" fill="#00D4FF" stroke="#0A2540" stroke-width="3"/><text x="490" y="68" font-size="11" font-weight="800" fill="#FFFFFF" text-anchor="middle" letter-spacing="0.4" >OTA</text><circle cx="530" cy="64" r="22" fill="#2A4466" stroke="#0A2540" stroke-width="3"/><text x="530" y="68" font-size="11" font-weight="800" fill="#FFFFFF" text-anchor="middle" letter-spacing="0.4" >+1</text>
<text x="48" y="140" font-size="14" font-weight="700" fill="#B9B5FF" letter-spacing="1.5" >ALL PACKAGES</text>
<text x="513.6" y="140" font-size="14" font-weight="600" fill="#E3E8EE" >24.8k</text><g transform="translate(492.6 128) scale(0.6250)" fill="none" stroke="#ADBDCC" stroke-width="2.2" stroke-linecap="round" stroke-linejoin="round"><path d="M21 15v4a2 2 0 0 1-2 2H5a2 2 0 0 1-2-2v-4"/><polyline points="7 10 12 15 17 10"/><line x1="12" y1="15" x2="12" y2="3"/></g><text x="467.8" y="140" font-size="14" font-weight="600" fill="#E3E8EE" >5</text><g transform="translate(446.8 128) scale(0.6250)" fill="none" stroke="#ADBDCC" stroke-width="2.2" stroke-linecap="round" stroke-linejoin="round"><path d="M21 16V8a2 2 0 0 0-1-1.73l-7-4a2 2 0 0 0-2 0l-7 4A2 2 0 0 0 3 8v8a2 2 0 0 0 1 1.73l7 4a2 2 0 0 0 2 0l7-4A2 2 0 0 0 21 16z"/><polyline points="3.27 6.96 12 12.01 20.73 6.96"/><line x1="12" y1="22.08" x2="12" y2="12"/></g>
<text x="47" y="180" font-size="30" font-weight="700" fill="#FFFFFF" letter-spacing="-0.3" >More on npm</text>
<text x="48" y="218" font-size="19" font-weight="400" fill="#ADBDCC" >Also maintaining a multilingual country-code</text>
<text x="48" y="246" font-size="19" font-weight="400" fill="#ADBDCC" >picker with search &amp; Reanimated v3 support.</text>
<rect x="48" y="272" width="504" height="52" rx="12" fill="#061B31" stroke="#1C3A5E"/>
<text x="68" y="304" font-size="14.5" xml:space="preserve" class="mono" ><tspan fill="#3ECF8E">$ </tspan><tspan fill="#FFFFFF">npm search</tspan><tspan fill="#FFD58A"> maintainer:huymobile</tspan></text>
</svg>
